<svg width="20" height="19" viewBox="0 0 20 19" fill="none" xmlns="http://www.w3.org/2000/svg">
<g clip-path="url(#clip0_108_1611)">
<path d="M6.64826 17.0096C13.7292 17.0096 17.6033 11.1417 17.6033 6.05455C17.6033 5.88959 17.5997 5.72096 17.5923 5.556C18.346 5.01098 18.9963 4.33591 19.5129 3.5625C18.811 3.87477 18.0658 4.07872 17.3027 4.16737C18.1062 3.68576 18.7078 2.92917 18.996 2.03786C18.2401 2.48582 17.4135 2.80181 16.5516 2.97229C15.9708 2.35522 15.203 1.94664 14.3667 1.80973C13.5305 1.67282 12.6724 1.8152 11.9252 2.21487C11.178 2.61453 10.5833 3.24921 10.2329 4.02079C9.88262 4.79237 9.79623 5.65786 9.98713 6.48346C8.45663 6.40666 6.95935 6.00907 5.59236 5.31648C4.22537 4.62389 3.01918 3.65176 2.052 2.4631C1.56043 3.31063 1.41 4.31354 1.6313 5.26799C1.8526 6.22244 2.42902 7.05682 3.24341 7.60155C2.63202 7.58214 2.03402 7.41753 1.49882 7.12132V7.16898C1.49827 8.05839 1.80575 8.92056 2.369 9.60891C2.93224 10.2973 3.71648 10.7693 4.58841 10.9448C4.02205 11.0998 3.42764 11.1224 2.85116 11.0108C3.0972 11.7757 3.57591 12.4447 4.22047 12.9245C4.86504 13.4042 5.6433 13.6707 6.44664 13.6869C5.0828 14.7582 3.39807 15.3393 1.66378 15.3365C1.35622 15.3361 1.04896 15.3172 0.743652 15.2801C2.5055 16.4104 4.555 17.0107 6.64826 17.0096Z" fill="#99A2A5"/>
</g>
<defs>
<clipPath id="clip0_108_1611">
<rect width="18.7692" height="18.7692" fill="white" transform="translate(0.743652)"/>
</clipPath>
</defs>
</svg>
